<?xml version="1.0" standalone="no"?>
<!DOCTYPE svg PUBLIC "-//W3C//DTD SVG 20010904//EN"
 "http://www.w3.org/TR/2001/REC-SVG-20010904/DTD/svg10.dtd">
<svg version="1.0" xmlns="http://www.w3.org/2000/svg"
 width="512.000000pt" height="512.000000pt" viewBox="0 0 512.000000 512.000000"
 preserveAspectRatio="xMidYMid meet">
<metadata>
Created by potrace 1.11, written by Peter Selinger 2001-2013
</metadata>
<g transform="translate(0.000000,512.000000) scale(0.100000,-0.100000)"
fill="#000000" stroke="none">
<path d="M3527 4064 c-1 -1 -51 -5 -112 -8 -292 -17 -548 -73 -748 -165 -65
-30 -100 -41 -64 -20 21 13 22 45 1 53 -17 6 -114 -41 -114 -56 0 -4 -5 -8
-11 -8 -17 0 -93 -64 -182 -153 -44 -43 -76 -74 -73 -68 9 14 -22 41 -39 35
-8 -3 -27 -34 -44 -69 -75 -161 -165 -277 -273 -350 -34 -23 -108 -57 -108
-50 0 2 -15 -1 -32 -6 -49 -15 -151 -12 -209 6 -15 5 -17 10 -9 25 7 13 6 21
-3 29 -40 33 -151 59 -301 70 -5 1 -3 8 4 17 11 12 11 18 -2 30 -14 14 -21 13
-75 -10 -180 -76 -309 -190 -387 -344 -39 -76 -77 -272 -82 -422 -7 -200 -27
-258 -156 -465 -174 -278 -275 -488 -292 -607 -3 -21 -3 -38 2 -38 4 0 34 46
67 102 101 171 289 450 374 556 142 176 181 192 457 194 138 0 191 8 299 43
58 19 175 15 282 -10 48 -11 69 -12 79 -4 17 14 7 38 -20 50 -22 9 143 4 199
-7 108 -19 270 -103 393 -201 29 -24 48 -32 62 -28 21 7 27 30 10 40 -5 3 -10
10 -10 15 0 5 20 -4 45 -21 134 -90 420 -202 595 -233 19 -3 45 -8 56 -10 12
-2 39 -7 60 -10 22 -3 50 -8 64 -11 28 -5 227 -22 288 -24 20 -1 14 -32 -15
-70 -69 -90 -386 -410 -447 -451 -54 -37 -123 -60 -216 -75 -8 -1 -26 -5 -40
-8 -79 -20 -245 -43 -382 -51 -38 -3 -80 -11 -95 -19 -16 -8 -45 -22 -65 -32
-21 -10 -38 -25 -38 -33 0 -12 3 -12 16 -1 21 17 55 19 71 3 17 -17 103 -27
245 -28 103 -1 115 -3 103 -16 -7 -8 -22 -32 -34 -53 l-21 -37 27 17 c34 23
37 23 183 28 148 5 184 10 230 34 114 60 140 76 194 118 32 26 176 164 320
308 182 183 271 280 296 322 l34 59 96 16 c213 35 279 57 280 90 0 14 -36 27
-51 17 -7 -5 -18 -9 -24 -9 -17 0 9 17 82 55 66 34 76 36 107 25 74 -24 106
-75 120 -190 3 -25 8 -54 10 -66 2 -11 7 -45 10 -75 3 -30 8 -65 11 -78 2 -13
7 -61 11 -106 6 -74 4 -87 -16 -122 -39 -70 -62 -77 -250 -78 -158 0 -168 -2
-235 -29 -67 -28 -125 -75 -125 -103 0 -10 9 -7 28 7 15 11 41 23 57 26 17 2
36 7 43 9 7 3 15 -2 18 -10 5 -11 22 -15 63 -16 48 0 53 -2 36 -12 -26 -16
-87 -78 -82 -84 3 -2 21 5 41 15 36 19 37 19 73 1 29 -15 59 -19 129 -19 94 0
141 12 180 47 39 35 67 44 173 58 60 8 114 17 122 20 47 18 52 108 14 235 -23
76 -37 131 -51 210 -2 14 -7 36 -9 50 -3 14 -7 48 -10 75 -3 28 -8 70 -11 95
-10 76 -12 101 -19 220 -6 117 -22 166 -62 189 -14 7 -9 19 30 82 94 152 147
334 145 505 -1 52 1 96 3 99 3 2 5 -4 6 -13 1 -9 4 -30 8 -47 8 -36 12 -64 14
-87 1 -23 46 -24 55 -3 7 19 -26 188 -54 275 -41 126 -110 265 -182 362 -57
77 -206 223 -245 241 -13 6 -23 14 -23 18 0 5 11 3 25 -3 21 -9 29 -9 42 4 21
21 10 36 -46 60 -148 64 -435 135 -626 154 -61 6 -264 12 -268 8z"/>
</g>
</svg>
